<mxfile host="app.diagrams.net" agent="Mozilla/5.0 (Windows NT 10.0; Win64; x64) AppleWebKit/537.36 (KHTML, like Gecko) Chrome/139.0.0.0 Safari/537.36" version="28.2.1">
  <diagram name="PÃ¡gina-1" id="u0RX3eWmxuv7ywh9c7Yb">
    <mxGraphModel grid="1" page="1" gridSize="10" guides="1" tooltips="1" connect="1" arrows="1" fold="1" pageScale="1" pageWidth="827" pageHeight="1169" math="0" shadow="0">
      <root>
        <mxCell id="0" />
        <mxCell id="1" parent="0" />
        <mxCell id="Njx253rxZSYDQyfUaw0v-5" value="PlanoAssinatura" style="swimlane;fontStyle=1;align=center;verticalAlign=top;childLayout=stackLayout;horizontal=1;startSize=26;horizontalStack=0;resizeParent=1;resizeParentMax=0;resizeLast=0;collapsible=1;marginBottom=0;whiteSpace=wrap;html=1;" vertex="1" parent="1">
          <mxGeometry x="200" y="80" width="400" height="200" as="geometry" />
        </mxCell>
        <mxCell id="Njx253rxZSYDQyfUaw0v-6" value="- nome: String&lt;div&gt;- precoMensal: Double&lt;/div&gt;&lt;div&gt;- metodoPagamento: String&lt;/div&gt;&lt;div&gt;&lt;br&gt;&lt;/div&gt;" style="text;strokeColor=none;fillColor=none;align=left;verticalAlign=top;spacingLeft=4;spacingRight=4;overflow=hidden;rotatable=0;points=[[0,0.5],[1,0.5]];portConstraint=eastwest;whiteSpace=wrap;html=1;" vertex="1" parent="Njx253rxZSYDQyfUaw0v-5">
          <mxGeometry y="26" width="400" height="54" as="geometry" />
        </mxCell>
        <mxCell id="Njx253rxZSYDQyfUaw0v-7" value="" style="line;strokeWidth=1;fillColor=none;align=left;verticalAlign=middle;spacingTop=-1;spacingLeft=3;spacingRight=3;rotatable=0;labelPosition=right;points=[];portConstraint=eastwest;strokeColor=inherit;" vertex="1" parent="Njx253rxZSYDQyfUaw0v-5">
          <mxGeometry y="80" width="400" height="8" as="geometry" />
        </mxCell>
        <mxCell id="Njx253rxZSYDQyfUaw0v-8" value="+ getNome(): String&lt;div&gt;+ setNome(nome: String): void&lt;/div&gt;&lt;div&gt;+ getPrecoMensal(): Double&lt;div&gt;+ setPrecoMensal(precoMensal: Double): void&lt;/div&gt;&lt;/div&gt;&lt;div&gt;+ getMetodoPagamento(): String&lt;div&gt;+ setMetodoPagamento(metodoPagamento: String): void&lt;/div&gt;&lt;/div&gt;&lt;div&gt;+ calcularPrecoAnual(Double): Double&lt;/div&gt;" style="text;strokeColor=none;fillColor=none;align=left;verticalAlign=top;spacingLeft=4;spacingRight=4;overflow=hidden;rotatable=0;points=[[0,0.5],[1,0.5]];portConstraint=eastwest;whiteSpace=wrap;html=1;" vertex="1" parent="Njx253rxZSYDQyfUaw0v-5">
          <mxGeometry y="88" width="400" height="112" as="geometry" />
        </mxCell>
        <mxCell id="80ZVfeYxHMMgDB4seIus-15" style="edgeStyle=orthogonalEdgeStyle;rounded=0;orthogonalLoop=1;jettySize=auto;html=1;entryX=0.5;entryY=1;entryDx=0;entryDy=0;" edge="1" parent="1" source="Njx253rxZSYDQyfUaw0v-9" target="Njx253rxZSYDQyfUaw0v-5">
          <mxGeometry relative="1" as="geometry" />
        </mxCell>
        <mxCell id="Njx253rxZSYDQyfUaw0v-9" value="PlanoBasico" style="swimlane;fontStyle=1;align=center;verticalAlign=top;childLayout=stackLayout;horizontal=1;startSize=26;horizontalStack=0;resizeParent=1;resizeParentMax=0;resizeLast=0;collapsible=1;marginBottom=0;whiteSpace=wrap;html=1;" vertex="1" parent="1">
          <mxGeometry x="200" y="330" width="400" height="160" as="geometry" />
        </mxCell>
        <mxCell id="Njx253rxZSYDQyfUaw0v-10" value="- limiteUsuarios: Integer&lt;div&gt;- armazenamento: Integer&lt;/div&gt;" style="text;strokeColor=none;fillColor=none;align=left;verticalAlign=top;spacingLeft=4;spacingRight=4;overflow=hidden;rotatable=0;points=[[0,0.5],[1,0.5]];portConstraint=eastwest;whiteSpace=wrap;html=1;" vertex="1" parent="Njx253rxZSYDQyfUaw0v-9">
          <mxGeometry y="26" width="400" height="44" as="geometry" />
        </mxCell>
        <mxCell id="Njx253rxZSYDQyfUaw0v-11" value="" style="line;strokeWidth=1;fillColor=none;align=left;verticalAlign=middle;spacingTop=-1;spacingLeft=3;spacingRight=3;rotatable=0;labelPosition=right;points=[];portConstraint=eastwest;strokeColor=inherit;" vertex="1" parent="Njx253rxZSYDQyfUaw0v-9">
          <mxGeometry y="70" width="400" height="8" as="geometry" />
        </mxCell>
        <mxCell id="Njx253rxZSYDQyfUaw0v-12" value="+ getLimiteUsuarios(): Integer&lt;div&gt;+ setLimiteUsuarios(limiteUsuarios: Integer): void&lt;/div&gt;&lt;div&gt;+ getArmazenamento:(): Integer&lt;div&gt;+ setA&lt;span style=&quot;background-color: transparent; color: light-dark(rgb(0, 0, 0), rgb(255, 255, 255));&quot;&gt;rmazenamento:&lt;/span&gt;&lt;span style=&quot;background-color: transparent; color: light-dark(rgb(0, 0, 0), rgb(255, 255, 255));&quot;&gt;(armazenamento:&lt;/span&gt;&lt;span style=&quot;background-color: transparent; color: light-dark(rgb(0, 0, 0), rgb(255, 255, 255));&quot;&gt;: Integer): void&lt;/span&gt;&lt;/div&gt;&lt;/div&gt;&lt;div&gt;+ listarBeneficios(): String&lt;/div&gt;" style="text;strokeColor=none;fillColor=none;align=left;verticalAlign=top;spacingLeft=4;spacingRight=4;overflow=hidden;rotatable=0;points=[[0,0.5],[1,0.5]];portConstraint=eastwest;whiteSpace=wrap;html=1;" vertex="1" parent="Njx253rxZSYDQyfUaw0v-9">
          <mxGeometry y="78" width="400" height="82" as="geometry" />
        </mxCell>
        <mxCell id="80ZVfeYxHMMgDB4seIus-17" style="edgeStyle=orthogonalEdgeStyle;rounded=0;orthogonalLoop=1;jettySize=auto;html=1;" edge="1" parent="1" source="80ZVfeYxHMMgDB4seIus-3" target="Njx253rxZSYDQyfUaw0v-9">
          <mxGeometry relative="1" as="geometry" />
        </mxCell>
        <mxCell id="80ZVfeYxHMMgDB4seIus-3" value="PlanoPremium" style="swimlane;fontStyle=1;align=center;verticalAlign=top;childLayout=stackLayout;horizontal=1;startSize=26;horizontalStack=0;resizeParent=1;resizeParentMax=0;resizeLast=0;collapsible=1;marginBottom=0;whiteSpace=wrap;html=1;" vertex="1" parent="1">
          <mxGeometry x="200" y="550" width="400" height="170" as="geometry" />
        </mxCell>
        <mxCell id="80ZVfeYxHMMgDB4seIus-4" value="- suportePrioritario: Boolean&lt;div&gt;- segurancaAprimorada: Boolean&lt;/div&gt;" style="text;strokeColor=none;fillColor=none;align=left;verticalAlign=top;spacingLeft=4;spacingRight=4;overflow=hidden;rotatable=0;points=[[0,0.5],[1,0.5]];portConstraint=eastwest;whiteSpace=wrap;html=1;" vertex="1" parent="80ZVfeYxHMMgDB4seIus-3">
          <mxGeometry y="26" width="400" height="54" as="geometry" />
        </mxCell>
        <mxCell id="80ZVfeYxHMMgDB4seIus-5" value="" style="line;strokeWidth=1;fillColor=none;align=left;verticalAlign=middle;spacingTop=-1;spacingLeft=3;spacingRight=3;rotatable=0;labelPosition=right;points=[];portConstraint=eastwest;strokeColor=inherit;" vertex="1" parent="80ZVfeYxHMMgDB4seIus-3">
          <mxGeometry y="80" width="400" height="8" as="geometry" />
        </mxCell>
        <mxCell id="80ZVfeYxHMMgDB4seIus-6" value="+ isSuportePrioritario(): Boolean&lt;div&gt;+ setSuportePrioritario(suportePrioritario: Boolean): void&lt;/div&gt;&lt;div&gt;+ isSegurancaAprimorada(): Boolean&lt;/div&gt;&lt;div&gt;+ setSegurancaAprimorada(segurancaAprimorada: Boolean): void&lt;/div&gt;&lt;div&gt;+ listarBeneficios(): String&lt;/div&gt;" style="text;strokeColor=none;fillColor=none;align=left;verticalAlign=top;spacingLeft=4;spacingRight=4;overflow=hidden;rotatable=0;points=[[0,0.5],[1,0.5]];portConstraint=eastwest;whiteSpace=wrap;html=1;" vertex="1" parent="80ZVfeYxHMMgDB4seIus-3">
          <mxGeometry y="88" width="400" height="82" as="geometry" />
        </mxCell>
        <mxCell id="80ZVfeYxHMMgDB4seIus-18" style="edgeStyle=orthogonalEdgeStyle;rounded=0;orthogonalLoop=1;jettySize=auto;html=1;" edge="1" parent="1" source="80ZVfeYxHMMgDB4seIus-11" target="80ZVfeYxHMMgDB4seIus-3">
          <mxGeometry relative="1" as="geometry" />
        </mxCell>
        <mxCell id="80ZVfeYxHMMgDB4seIus-11" value="PlanoEnterprise" style="swimlane;fontStyle=1;align=center;verticalAlign=top;childLayout=stackLayout;horizontal=1;startSize=26;horizontalStack=0;resizeParent=1;resizeParentMax=0;resizeLast=0;collapsible=1;marginBottom=0;whiteSpace=wrap;html=1;" vertex="1" parent="1">
          <mxGeometry x="200" y="770" width="400" height="170" as="geometry" />
        </mxCell>
        <mxCell id="80ZVfeYxHMMgDB4seIus-12" value="- suporte24h: Boolean&lt;div&gt;- personalizacao: Boolean&lt;/div&gt;" style="text;strokeColor=none;fillColor=none;align=left;verticalAlign=top;spacingLeft=4;spacingRight=4;overflow=hidden;rotatable=0;points=[[0,0.5],[1,0.5]];portConstraint=eastwest;whiteSpace=wrap;html=1;" vertex="1" parent="80ZVfeYxHMMgDB4seIus-11">
          <mxGeometry y="26" width="400" height="54" as="geometry" />
        </mxCell>
        <mxCell id="80ZVfeYxHMMgDB4seIus-13" value="" style="line;strokeWidth=1;fillColor=none;align=left;verticalAlign=middle;spacingTop=-1;spacingLeft=3;spacingRight=3;rotatable=0;labelPosition=right;points=[];portConstraint=eastwest;strokeColor=inherit;" vertex="1" parent="80ZVfeYxHMMgDB4seIus-11">
          <mxGeometry y="80" width="400" height="8" as="geometry" />
        </mxCell>
        <mxCell id="80ZVfeYxHMMgDB4seIus-14" value="+ isSuporte24h(): Boolean&lt;div&gt;+ setSuporte24h(suporte24h: Boolean): void&lt;/div&gt;&lt;div&gt;+ isPersonalizacao(): Boolean&lt;/div&gt;&lt;div&gt;+ setPersonalizacao(personalizacao: Boolean): void&lt;/div&gt;&lt;div&gt;+ listarBeneficios(): String&lt;/div&gt;" style="text;strokeColor=none;fillColor=none;align=left;verticalAlign=top;spacingLeft=4;spacingRight=4;overflow=hidden;rotatable=0;points=[[0,0.5],[1,0.5]];portConstraint=eastwest;whiteSpace=wrap;html=1;" vertex="1" parent="80ZVfeYxHMMgDB4seIus-11">
          <mxGeometry y="88" width="400" height="82" as="geometry" />
        </mxCell>
      </root>
    </mxGraphModel>
  </diagram>
</mxfile>
